<svg width="17" height="16" viewBox="0 0 17 16" fill="none" xmlns="http://www.w3.org/2000/svg">
<path d="M9.86768 10C10.5117 10 11.0343 10.5227 11.0343 11.1667L11.0337 11.808C11.1117 13.268 10.0263 14.006 8.07901 14.006C6.13901 14.006 5.03434 13.2793 5.03434 11.8333V11.1667C5.03434 10.5227 5.55701 10 6.20101 10H9.86768ZM9.86768 11H6.20101C6.15681 11 6.11441 11.0176 6.08316 11.0488C6.0519 11.0801 6.03434 11.1225 6.03434 11.1667V11.8333C6.03434 12.6173 6.62568 13.006 8.07901 13.006C9.52434 13.006 10.0757 12.63 10.0343 11.8347V11.1667C10.0343 11.1225 10.0168 11.0801 9.98553 11.0488C9.95427 11.0176 9.91188 11 9.86768 11ZM2.53434 6.66667H5.45168C5.36768 6.99302 5.34619 7.33232 5.38834 7.66667H2.53434C2.49014 7.66667 2.44775 7.68423 2.41649 7.71548C2.38524 7.74674 2.36768 7.78913 2.36768 7.83333V8.5C2.36768 9.284 2.95901 9.67267 4.41234 9.67267C4.72034 9.67267 4.98768 9.65533 5.21701 9.62133C4.83556 9.86299 4.55701 10.2372 4.43501 10.672L4.41234 10.6727C2.47234 10.6727 1.36768 9.946 1.36768 8.5V7.83333C1.36768 7.18933 1.89034 6.66667 2.53434 6.66667ZM13.5343 6.66667C14.1783 6.66667 14.701 7.18933 14.701 7.83333L14.7003 8.47467C14.7783 9.93467 13.693 10.6727 11.7457 10.6727L11.633 10.6713C11.5073 10.2247 11.2172 9.84218 10.821 9.60067C11.079 9.64867 11.3857 9.67267 11.7457 9.67267C13.191 9.67267 13.7423 9.29667 13.701 8.50133V7.83333C13.701 7.78913 13.6834 7.74674 13.6522 7.71548C13.6209 7.68423 13.5785 7.66667 13.5343 7.66667H10.681C10.7223 7.33226 10.7006 6.99309 10.617 6.66667H13.5343ZM8.03434 5.33333C8.29699 5.33333 8.55706 5.38506 8.79971 5.48557C9.04236 5.58608 9.26284 5.7334 9.44856 5.91912C9.63427 6.10484 9.78159 6.32532 9.8821 6.56797C9.98261 6.81062 10.0343 7.07069 10.0343 7.33333C10.0343 7.59598 9.98261 7.85605 9.8821 8.0987C9.78159 8.34135 9.63427 8.56183 9.44856 8.74755C9.26284 8.93326 9.04236 9.08058 8.79971 9.18109C8.55706 9.2816 8.29699 9.33333 8.03434 9.33333C7.50391 9.33333 6.9952 9.12262 6.62013 8.74755C6.24506 8.37247 6.03434 7.86377 6.03434 7.33333C6.03434 6.8029 6.24506 6.29419 6.62013 5.91912C6.9952 5.54405 7.50391 5.33333 8.03434 5.33333ZM8.03434 6.33333C7.90302 6.33333 7.77298 6.3592 7.65166 6.40945C7.53033 6.45971 7.42009 6.53337 7.32724 6.62623C7.23438 6.71909 7.16072 6.82932 7.11046 6.95065C7.06021 7.07198 7.03434 7.20201 7.03434 7.33333C7.03434 7.46466 7.06021 7.59469 7.11046 7.71602C7.16072 7.83734 7.23438 7.94758 7.32724 8.04044C7.42009 8.1333 7.53033 8.20696 7.65166 8.25721C7.77298 8.30747 7.90302 8.33333 8.03434 8.33333C8.29956 8.33333 8.55391 8.22798 8.74145 8.04044C8.92899 7.8529 9.03434 7.59855 9.03434 7.33333C9.03434 7.06812 8.92899 6.81376 8.74145 6.62623C8.55391 6.43869 8.29956 6.33333 8.03434 6.33333ZM4.36768 2C4.89811 2 5.40682 2.21071 5.78189 2.58579C6.15696 2.96086 6.36768 3.46957 6.36768 4C6.36768 4.53043 6.15696 5.03914 5.78189 5.41421C5.40682 5.78929 4.89811 6 4.36768 6C3.83724 6 3.32853 5.78929 2.95346 5.41421C2.57839 5.03914 2.36768 4.53043 2.36768 4C2.36768 3.46957 2.57839 2.96086 2.95346 2.58579C3.32853 2.21071 3.83724 2 4.36768 2ZM11.701 2C12.2314 2 12.7401 2.21071 13.1152 2.58579C13.4903 2.96086 13.701 3.46957 13.701 4C13.701 4.53043 13.4903 5.03914 13.1152 5.41421C12.7401 5.78929 12.2314 6 11.701 6C11.1706 6 10.6619 5.78929 10.2868 5.41421C9.91172 5.03914 9.70101 4.53043 9.70101 4C9.70101 3.46957 9.91172 2.96086 10.2868 2.58579C10.6619 2.21071 11.1706 2 11.701 2ZM4.36768 3C4.10246 3 3.84811 3.10536 3.66057 3.29289C3.47303 3.48043 3.36768 3.73478 3.36768 4C3.36768 4.26522 3.47303 4.51957 3.66057 4.70711C3.84811 4.89464 4.10246 5 4.36768 5C4.63289 5 4.88725 4.89464 5.07478 4.70711C5.26232 4.51957 5.36768 4.26522 5.36768 4C5.36768 3.73478 5.26232 3.48043 5.07478 3.29289C4.88725 3.10536 4.63289 3 4.36768 3ZM11.701 3C11.4358 3 11.1814 3.10536 10.9939 3.29289C10.8064 3.48043 10.701 3.73478 10.701 4C10.701 4.26522 10.8064 4.51957 10.9939 4.70711C11.1814 4.89464 11.4358 5 11.701 5C11.9662 5 12.2206 4.89464 12.4081 4.70711C12.5957 4.51957 12.701 4.26522 12.701 4C12.701 3.73478 12.5957 3.48043 12.4081 3.29289C12.2206 3.10536 11.9662 3 11.701 3Z" fill="#A9FF1C"/>
</svg>
